<svg width="31" height="20" viewBox="0 0 31 20" fill="none" xmlns="http://www.w3.org/2000/svg">
<path d="M18.3597 2.91358C19.0886 3.10415 19.7914 3.35459 20.4609 3.66407C21.7261 2.70183 23.5365 2.79712 24.6922 3.95237C25.6809 4.94107 25.893 6.40865 25.3331 7.60462C25.9452 8.42189 26.4623 9.31775 26.8651 10.2706H26.8744C28.6564 10.2706 30.1003 11.7146 30.1003 13.4965C30.1003 14.9592 29.1308 16.1959 27.7943 16.5889C27.7084 17.3797 27.5439 18.1566 27.3057 18.945C27.1888 19.3335 26.8292 19.5859 26.4407 19.5859L3.85531 19.5908C3.41715 19.5908 3.05026 19.2785 2.96678 18.8664C2.72856 18.0613 2.57138 17.2799 2.49035 16.4744C1.32777 15.9886 0.510498 14.8379 0.510498 13.4965C0.510498 11.8192 1.79239 10.4421 3.42652 10.2849C3.83169 9.32712 4.34844 8.42922 4.96577 7.60707C4.40341 6.4111 4.61557 4.94107 5.60427 3.95237C6.75952 2.79712 8.57283 2.70427 9.83762 3.66651C10.5071 3.35947 11.2099 3.10415 11.9368 2.91358C12.094 1.27945 13.4711 0 15.148 0C16.8253 0 18.2025 1.27701 18.3597 2.91358ZM24.0964 8.98669C22.8528 9.74899 21.2069 9.5918 20.1298 8.51474C19.2221 7.60707 18.9697 6.29911 19.3675 5.16504C18.9338 4.98179 18.481 4.82665 18.0188 4.70041C17.483 5.74164 16.399 6.45182 15.148 6.45182C13.8975 6.45182 12.8135 5.7392 12.2772 4.70041C11.815 4.82665 11.3671 4.98424 10.9314 5.16504C11.3292 6.29667 11.0719 7.60951 10.1666 8.51474C9.08957 9.5918 7.44567 9.74899 6.20206 8.98669C5.8376 9.50833 5.51835 10.0658 5.24919 10.6473C6.26884 11.1881 6.96231 12.2623 6.96231 13.4965C6.96231 15.0712 5.83272 16.384 4.34152 16.665C4.39161 17.0368 4.46042 17.4061 4.54634 17.7755H25.7501C25.843 17.3846 25.9142 16.9892 25.9643 16.5913C24.6254 16.2004 23.6485 14.9617 23.6485 13.4965C23.6485 12.3625 24.2324 11.3664 25.1161 10.7923C24.8327 10.1562 24.4898 9.55108 24.0964 8.98669Z" fill="white"/>
</svg>
